<?xml version="1.0" encoding="UTF-8"?>
<svg id="_レイヤー_1" data-name="レイヤー_1" xmlns="http://www.w3.org/2000/svg" version="1.1" viewBox="0 0 1390.05 172">
  <!-- Generator: Adobe Illustrator 29.1.0, SVG Export Plug-In . SVG Version: 2.1.0 Build 142)  -->
  <defs>
    <style>
      .st0, .st1 {
        fill: #514c4c;
      }

      .st1, .st2 {
        stroke: #000;
        stroke-miterlimit: 10;
      }

      .st2 {
        fill: #d83d3d;
      }
    </style>
  </defs>
  <rect class="st2" x=".5" y=".5" width="36.47" height="31.76"/>
  <rect class="st1" x=".5" y="49.12" width="36.47" height="121.95"/>
  <g>
    <path class="st1" d="M119.3.89h-52.7c-3.81,0-7.52.47-11.06,1.36v48.01c8.23-11.39,21.61-18.8,36.74-18.8h1.34c25.01,0,45.29,20.28,45.29,45.29v18.85c0,25.01-20.28,45.29-45.29,45.29h-1.34c-15.12,0-28.51-7.41-36.74-18.8v48.01c3.54.89,7.24,1.36,11.06,1.36h52.7c25.01,0,45.29-20.28,45.29-45.29V46.18c0-25.01-20.28-45.29-45.29-45.29Z"/>
    <path class="st1" d="M55.55,50.26"/>
    <path class="st1" d="M55.55,122.09"/>
  </g>
  <path class="st1" d="M206.61,114.75V.89h-36.34v126.01c0,24.63,19.97,44.6,44.6,44.6h65.62v-30.61h-47.74c-14.44,0-26.14-11.7-26.14-26.14Z"/>
  <path class="st0" d="M75.96,54.03s-3.33-9.44-6.66,1.57c0,0-.95,13.64-3.81,10.49,0,0-3.33,2.1,2.38,8.39,0,0-7.61,9.44,0,12.07,0,0-2.91,6.36,2.35,8.95,0,0,6.21,4.16,3.83,12.03,0,0-7.61,8.03,1.9,2.7,0,0,.95-13.19,3.81-10.05,2.86,3.15-8.57,18.36,1.43,16.79,0,0,2.86-22.03,14.28-18.89,0,0,14.75-5.25,7.14,11.54,0,0,5.44,3.97,5.57-6.14.14-10.12,3.47,3.52,2.52,5.1s-9.04,7.34,2.86,5.25l1.96-30.16s11.36-.8,6.6-19.68l-11.9-1.57,1.43,3.67h-3.91s8.67,8.92,4.38,8.92-27.13,5.77-21.42-10.49c0,0,.13-23.46-6.83-7.53,0,0-6.01,2.29-6.97-.33l-.95-2.62Z"/>
  <g>
    <path class="st0" d="M327.95,38.08v89.36h-25.6V38.08h25.6Z"/>
    <path class="st0" d="M390.4,54.2l-9.97,29.17,12.95,44.07h-23.62l-7.66-31.92-.03,31.92h-24.57V38.08h24.57l.03,37.51,7.66-21.4h20.65Z"/>
    <path class="st0" d="M452.67,92.12h-31.8v15.84c0,3.31.26,5.45.79,6.4.53.96,1.54,1.44,3.04,1.44,1.86,0,3.11-.63,3.74-1.9.63-1.27.94-3.73.94-7.37v-9.66h23.29v5.41c0,4.53-.31,8-.94,10.43-.63,2.43-2.1,5.02-4.41,7.78-2.31,2.76-5.24,4.83-8.79,6.21-3.55,1.38-8,2.07-13.35,2.07s-9.77-.68-13.74-2.04c-3.97-1.36-7.06-3.23-9.27-5.6-2.21-2.37-3.74-4.99-4.59-7.84-.85-2.85-1.28-7-1.28-12.45v-21.36c0-6.4.95-11.45,2.86-15.15,1.9-3.7,5.03-6.53,9.36-8.5,4.34-1.97,9.32-2.95,14.96-2.95,6.89,0,12.58,1.19,17.06,3.56,4.48,2.37,7.62,5.52,9.43,9.44,1.8,3.92,2.71,9.43,2.71,16.53v9.71ZM428.04,80.2v-5.35c0-3.79-.22-6.24-.67-7.34-.45-1.1-1.36-1.66-2.74-1.66-1.7,0-2.76.47-3.16,1.41-.41.94-.61,3.47-.61,7.59v5.35h7.18Z"/>
    <path class="st0" d="M485.26,38.08v21.15c2.03-2.14,4.29-3.73,6.78-4.78,2.49-1.05,5.2-1.58,8.12-1.58,3.36,0,6.28.48,8.76,1.44,2.47.96,4.36,2.3,5.66,4.03,1.3,1.73,2.08,3.42,2.34,5.08.26,1.66.4,5.19.4,10.6v33.01c0,5.37-.4,9.37-1.19,12-.79,2.63-2.65,4.91-5.56,6.84-2.92,1.93-6.39,2.9-10.4,2.9-2.88,0-5.56-.57-8.06-1.71-2.49-1.14-4.77-2.86-6.84-5.14l-1.58,5.53h-22.99V38.08h24.57ZM492.74,75.01c0-3.79-.26-6.27-.79-7.42-.53-1.16-1.56-1.74-3.1-1.74s-2.47.51-2.92,1.52c-.45,1.01-.67,3.56-.67,7.65v31.57c0,3.94.25,6.46.76,7.56.51,1.1,1.51,1.66,3.01,1.66s2.54-.57,3.01-1.71c.47-1.14.7-3.88.7-8.22v-30.85Z"/>
    <path class="st0" d="M581.64,54.2v73.24h-24.99l.43-6.09c-1.7,2.47-3.8,4.32-6.29,5.56s-5.36,1.85-8.6,1.85c-3.69,0-6.75-.59-9.18-1.77-2.43-1.18-4.23-2.74-5.38-4.69-1.16-1.95-1.88-3.98-2.16-6.1-.28-2.12-.43-6.32-.43-12.61v-49.4h24.57v49.84c0,5.7.19,9.09.58,10.16.38,1.07,1.43,1.6,3.13,1.6,1.82,0,2.91-.55,3.25-1.66.34-1.1.52-4.65.52-10.65v-49.29h24.57Z"/>
    <path class="st0" d="M643.36,54.2l-9.97,29.17,12.95,44.07h-23.62l-7.66-31.92-.03,31.92h-24.57V38.08h24.57l.03,37.51,7.66-21.4h20.65Z"/>
    <path class="st0" d="M706.24,54.2v73.24h-24.99l.42-6.09c-1.7,2.47-3.8,4.32-6.29,5.56-2.49,1.23-5.36,1.85-8.6,1.85-3.69,0-6.75-.59-9.18-1.77-2.43-1.18-4.23-2.74-5.38-4.69-1.16-1.95-1.88-3.98-2.16-6.1-.28-2.12-.43-6.32-.43-12.61v-49.4h24.57v49.84c0,5.7.19,9.09.58,10.16.38,1.07,1.43,1.6,3.13,1.6,1.82,0,2.91-.55,3.25-1.66.34-1.1.52-4.65.52-10.65v-49.29h24.57Z"/>
    <path class="st0" d="M739.63,54.2l-.97,9.63c3.57-6.9,8.74-10.55,15.51-10.96v25.78c-4.5,0-7.8.55-9.91,1.66-2.11,1.1-3.41,2.64-3.89,4.61-.49,1.97-.73,6.5-.73,13.61v28.92h-24.57V54.2h24.57Z"/>
    <path class="st0" d="M815.21,79.92v17.94c0,6.59-.36,11.42-1.09,14.49-.73,3.07-2.29,5.94-4.68,8.61-2.39,2.67-5.46,4.64-9.21,5.91-3.75,1.27-8.06,1.9-12.92,1.9-5.43,0-10.03-.54-13.8-1.63-3.77-1.08-6.7-2.72-8.79-4.91-2.09-2.19-3.58-4.84-4.47-7.95-.89-3.11-1.34-7.77-1.34-13.99v-18.77c0-6.81.81-12.12,2.43-15.95,1.62-3.83,4.54-6.9,8.76-9.22,4.22-2.32,9.61-3.48,16.17-3.48,5.51,0,10.25.75,14.2,2.24,3.95,1.49,7,3.43,9.15,5.82,2.15,2.39,3.62,4.86,4.41,7.4.79,2.54,1.19,6.4,1.19,11.59ZM790.65,74.4c0-3.75-.22-6.12-.67-7.09-.45-.97-1.4-1.46-2.86-1.46s-2.43.49-2.92,1.46c-.49.98-.73,3.34-.73,7.09v33.06c0,3.46.24,5.71.73,6.76s1.44,1.57,2.86,1.57,2.42-.48,2.89-1.44c.47-.96.7-3.02.7-6.18v-33.78Z"/>
    <path class="st0" d="M845.98,38.08h19.15c12.36,0,20.73.52,25.08,1.55,4.36,1.03,7.67,2.72,9.94,5.08,2.27,2.36,3.69,4.98,4.26,7.87.57,2.89.85,8.56.85,17.03v31.3c0,8.02-.42,13.38-1.25,16.09s-2.28,4.82-4.35,6.35c-2.07,1.53-4.62,2.59-7.66,3.2-3.04.61-7.62.91-13.74.91h-32.29V38.08ZM871.58,53.37v58.78c3.69,0,5.96-.67,6.81-2.01.85-1.34,1.28-5,1.28-10.96v-34.72c0-4.05-.14-6.64-.43-7.78-.28-1.14-.93-1.98-1.95-2.51-1.01-.53-2.92-.8-5.72-.8Z"/>
    <path class="st0" d="M969.67,79.92v17.94c0,6.59-.36,11.42-1.09,14.49-.73,3.07-2.29,5.94-4.68,8.61-2.39,2.67-5.46,4.64-9.21,5.91-3.75,1.27-8.06,1.9-12.92,1.9-5.43,0-10.03-.54-13.8-1.63-3.77-1.08-6.7-2.72-8.79-4.91-2.09-2.19-3.58-4.84-4.47-7.95-.89-3.11-1.34-7.77-1.34-13.99v-18.77c0-6.81.81-12.12,2.43-15.95,1.62-3.83,4.54-6.9,8.76-9.22,4.22-2.32,9.61-3.48,16.17-3.48,5.51,0,10.25.75,14.2,2.24,3.95,1.49,7,3.43,9.15,5.82,2.15,2.39,3.62,4.86,4.41,7.4.79,2.54,1.19,6.4,1.19,11.59ZM945.1,74.4c0-3.75-.22-6.12-.67-7.09-.45-.97-1.4-1.46-2.86-1.46s-2.43.49-2.92,1.46c-.49.98-.73,3.34-.73,7.09v33.06c0,3.46.24,5.71.73,6.76s1.44,1.57,2.86,1.57,2.42-.48,2.89-1.44c.47-.96.7-3.02.7-6.18v-33.78Z"/>
    <path class="st0" d="M1033.58,54.2v56.41c0,7.62-.19,12.54-.58,14.76-.39,2.23-1.75,4.58-4.1,7.06-2.35,2.48-5.62,4.38-9.82,5.69-4.2,1.31-9.48,1.96-15.84,1.96-7.82,0-14.11-1.21-18.85-3.62-4.74-2.41-7.2-7.15-7.36-14.21h23.84c0,3.24,1.3,4.86,3.89,4.86,1.86,0,3.1-.5,3.71-1.49.61-.99.91-3.08.91-6.24v-5.53c-2.11,1.73-4.33,3.04-6.66,3.93-2.33.89-4.77,1.33-7.33,1.33-4.42,0-8.06-.81-10.92-2.43-2.86-1.62-4.81-3.74-5.87-6.38-1.05-2.63-1.58-6.38-1.58-11.23v-26.6c0-6.95,1.38-11.96,4.13-15.01,2.76-3.05,6.95-4.58,12.59-4.58,3.08,0,5.89.57,8.42,1.71,2.53,1.14,4.79,2.86,6.78,5.14l1.76-5.53h22.86ZM1008.95,73.63c0-3.35-.21-5.48-.64-6.4-.43-.92-1.37-1.38-2.83-1.38s-2.42.52-3.01,1.57c-.59,1.05-.88,3.12-.88,6.21v24.62c0,3.28.22,5.4.67,6.38.45.98,1.38,1.46,2.8,1.46,1.62,0,2.68-.59,3.16-1.77.49-1.18.73-3.84.73-8v-22.69Z"/>
    <path class="st0" d="M1090.62,38.08v71.48h15.57v17.88h-41.17V38.08h25.6Z"/>
    <path class="st0" d="M1167.24,79.92v17.94c0,6.59-.36,11.42-1.09,14.49-.73,3.07-2.29,5.94-4.68,8.61-2.39,2.67-5.46,4.64-9.21,5.91-3.75,1.27-8.06,1.9-12.92,1.9-5.43,0-10.03-.54-13.8-1.63-3.77-1.08-6.7-2.72-8.79-4.91-2.09-2.19-3.58-4.84-4.47-7.95-.89-3.11-1.34-7.77-1.34-13.99v-18.77c0-6.81.81-12.12,2.43-15.95,1.62-3.83,4.54-6.9,8.76-9.22,4.22-2.32,9.61-3.48,16.17-3.48,5.51,0,10.25.75,14.2,2.24,3.95,1.49,7,3.43,9.15,5.82,2.15,2.39,3.62,4.86,4.41,7.4.79,2.54,1.19,6.4,1.19,11.59ZM1142.67,74.4c0-3.75-.22-6.12-.67-7.09-.45-.97-1.4-1.46-2.86-1.46s-2.43.49-2.92,1.46c-.49.98-.73,3.34-.73,7.09v33.06c0,3.46.24,5.71.73,6.76s1.44,1.57,2.86,1.57,2.42-.48,2.89-1.44c.47-.96.7-3.02.7-6.18v-33.78Z"/>
    <path class="st0" d="M1226.16,54.2l-11.49,73.24h-32.11l-12.34-73.24h21.94l6.92,53.48c.54-3.93,1.46-13.52,2.77-28.75.7-8.5,1.49-16.75,2.38-24.74h21.94Z"/>
    <path class="st0" d="M1285.39,92.12h-31.8v15.84c0,3.31.26,5.45.79,6.4.53.96,1.54,1.44,3.04,1.44,1.86,0,3.11-.63,3.74-1.9.63-1.27.94-3.73.94-7.37v-9.66h23.29v5.41c0,4.53-.31,8-.94,10.43-.63,2.43-2.1,5.02-4.41,7.78s-5.24,4.83-8.79,6.21c-3.55,1.38-8,2.07-13.35,2.07s-9.77-.68-13.74-2.04c-3.97-1.36-7.06-3.23-9.27-5.6-2.21-2.37-3.74-4.99-4.59-7.84-.85-2.85-1.28-7-1.28-12.45v-21.36c0-6.4.95-11.45,2.86-15.15,1.91-3.7,5.03-6.53,9.36-8.5,4.34-1.97,9.32-2.95,14.96-2.95,6.89,0,12.58,1.19,17.06,3.56,4.48,2.37,7.62,5.52,9.42,9.44s2.71,9.43,2.71,16.53v9.71ZM1260.77,80.2v-5.35c0-3.79-.22-6.24-.67-7.34-.45-1.1-1.36-1.66-2.74-1.66-1.7,0-2.76.47-3.16,1.41-.41.94-.61,3.47-.61,7.59v5.35h7.18Z"/>
    <path class="st0" d="M1317.99,54.2l-.97,9.63c3.57-6.9,8.74-10.55,15.51-10.96v25.78c-4.5,0-7.8.55-9.91,1.66-2.11,1.1-3.41,2.64-3.89,4.61-.49,1.97-.73,6.5-.73,13.61v28.92h-24.57V54.2h24.57Z"/>
    <path class="st0" d="M1388.16,77.6h-21.77v-3.97c0-3.39-.21-5.53-.64-6.43-.43-.9-1.49-1.35-3.19-1.35-1.38,0-2.41.41-3.1,1.24-.69.83-1.03,2.07-1.03,3.73,0,2.25.17,3.89.52,4.94.34,1.05,1.38,2.2,3.1,3.45,1.72,1.25,5.26,3.07,10.61,5.46,7.13,3.17,11.82,6.15,14.05,8.94,2.23,2.8,3.34,6.86,3.34,12.2,0,5.96-.85,10.46-2.55,13.5-1.7,3.04-4.55,5.37-8.54,7.01-3.99,1.64-8.81,2.46-14.44,2.46-6.24,0-11.58-.88-16.02-2.65-4.44-1.77-7.49-4.16-9.15-7.18-1.66-3.02-2.49-7.58-2.49-13.69v-3.53h21.77v4.64c0,3.94.27,6.49.82,7.67.55,1.18,1.63,1.77,3.25,1.77,1.74,0,2.96-.39,3.65-1.19.69-.79,1.03-2.46,1.03-5,0-3.5-.45-5.69-1.34-6.57-.93-.88-5.7-3.5-14.29-7.84-7.22-3.68-11.61-7.02-13.2-10.02-1.58-3-2.37-6.56-2.37-10.68,0-5.85.85-10.16,2.55-12.94,1.7-2.78,4.59-4.92,8.67-6.43,4.07-1.51,8.81-2.26,14.2-2.26s9.9.62,13.65,1.85c3.75,1.23,6.63,2.86,8.63,4.88,2.01,2.02,3.22,3.9,3.65,5.63.43,1.73.64,4.43.64,8.11v4.25Z"/>
  </g>
</svg>