<?xml version="1.0" encoding="UTF-8"?>
<svg id="_レイヤー_1" data-name="レイヤー_1" xmlns="http://www.w3.org/2000/svg" version="1.1" viewBox="0 0 982 250.6">
  <!-- Generator: Adobe Illustrator 29.0.1, SVG Export Plug-In . SVG Version: 2.1.0 Build 192)  -->
  <defs>
    <style>
      .st0 {
        stroke: #000;
        stroke-miterlimit: 10;
      }
    </style>
  </defs>
  <path class="st0" d="M1.4,107.8c-1.5-3-1.1-5.3,1.1-6.9,4.6-1.5,10.3-3.8,17.2-6.9.8-13,1.5-21.4,2.3-25.2,1.5-3,3.8-4.6,6.9-4.6s4.2,1.5,5.7,4.6c2.3,4.6,3.4,10.3,3.4,17.2,7.6-3.8,14.5-5.7,20.7-5.7s13.4,3.1,19.5,9.2c9.9,10,14.9,25.2,14.9,45.9,0,29.8-6.1,50.9-18.4,63.1s-18.8,13.8-28.7,13.8-14.2-3.4-19.5-10.3c-.8,12.2-2.3,23.7-4.6,34.4-.8,4.6-2.7,8-5.7,10.3-1.5,2.3-3.4,3.4-5.7,3.4s-5-1.5-5.7-4.6c-3.1-7.7-4.2-14.5-3.4-20.7,4.6-19.1,9.9-55.8,16.1-110.2-6.1.8-11.5-1.5-16.1-6.9ZM35.9,190.4c9.9,0,18.7-5.3,26.4-16.1,6.9-11.5,10.3-24.9,10.3-40.2s-2.7-27.9-8-33.3c-2.3-2.3-5.4-3.4-9.2-3.4s-11.1,3.4-19.5,10.3c-1.5,23.7-4.2,50.9-8,81.5,1.5.8,4.2,1.1,8,1.1Z"/>
  <path class="st0" d="M201.1,83.7c8.4,10,12.6,23.3,12.6,40.2,0,24.5-5.7,44.8-17.2,60.8-12.2,16.8-24.5,25.2-36.7,25.2s-21.4-3.8-29.8-11.5c-10-8.4-14.9-23-14.9-43.6s5.7-39.4,17.2-56.2c12.2-16.8,26.8-25.2,43.6-25.2s18.4,3.4,25.2,10.3ZM150.6,107.8c-9.2,11.5-13.8,26.4-13.8,44.8s6.5,31,19.5,31,18.7-5.7,26.4-17.2c8.4-13,12.6-26,12.6-39s-1.5-13-4.6-18.4c-5.4-9.2-11.9-13.8-19.5-13.8s-13.8,4.2-20.7,12.6Z"/>
  <path class="st0" d="M333.1,78c3,3.8,3,7.3,0,10.3s-9.2,5.4-18.4,6.9c-13.8,3.1-25.2,12.2-34.4,27.5-8.4,14.5-13.4,37.9-14.9,70-2.3,10.7-5.7,16.1-10.3,16.1-6.1-1.5-9.2-9.9-9.2-25.2,5.3-42.8,8-67.3,8-73.5-.8-8.4-1.9-13.8-3.4-16.1-3.1-3-6.1-4.6-9.2-4.6-.8-2.3-.8-4.6,0-6.9,2.3-3,6.1-4.6,11.5-4.6s8.4,2.7,13.8,8c4.6,5.4,6.5,14.2,5.7,26.4,14.5-23.7,30.6-37.1,48.2-40.2,6.1,1.5,10.3,3.4,12.6,5.7Z"/>
  <path class="st0" d="M411.1,22.9c0,11.5-.8,21.1-2.3,28.7,0,6.9-.4,13.4-1.1,19.5h8c3.8,0,8.8-.8,14.9-2.3,1.5,5.4-.4,11.1-5.7,17.2-2.3,1.5-6.1,2.3-11.5,2.3s-6.5.4-8,1.1c-1.5,12.2-3.4,29.1-5.7,50.5-1.5,12.2-2.7,20.7-3.4,25.2-.8,9.2-1.1,15.3-1.1,18.4s1.9,5.7,5.7,5.7,5-.8,8-2.3c4.6-3,9.2-7.6,13.8-13.8,3-3.8,3.8-3.4,2.3,1.1-3.1,26-12.2,39.4-27.5,40.2-15.3.8-22.6-11.9-21.8-37.9,6.1-44.4,9.6-73.1,10.3-86.1l-19.5,2.3c-3.1-1.5-4.6-4.6-4.6-9.2s4.2-9.2,12.6-9.2,9.2-.4,13.8-1.1c.8-14.5,1.5-26,2.3-34.4.8-6.9,1.5-13.4,2.3-19.5.8-6.9,3-11.9,6.9-14.9,2.3-2.3,5-1.5,8,2.3,2.3,2.3,3.4,7.7,3.4,16.1Z"/>
  <path class="st0" d="M475.4,102.1c-.8-2.3-.8-6.1,0-11.5l2.3-11.5,4.6,2.3c3.8.8,8,.8,12.6,0,2.3-26.8,6.5-44.4,12.6-52.8,9.2-13,20.7-19.5,34.4-19.5s21.4,2.3,25.2,6.9c1.5,3.8,2.7,8,3.4,12.6,2.3,5.4,2.3,10,0,13.8-.8.8-1.9,1.1-3.4,1.1s-3.8-1.9-6.9-5.7c-7.7-6.9-13.8-10.3-18.4-10.3-7.7,0-13.8,3.4-18.4,10.3-4.6,6.1-8,20.7-10.3,43.6,17.6,0,29.8-1.1,36.7-3.4-7.7,12.2-13.8,18.4-18.4,18.4l-19.5,2.3c-2.3,29.1-4.6,56.2-6.9,81.5-.8,21.4-5.7,38.3-14.9,50.5-8.4,11.5-15.7,17.2-21.8,17.2s-5.4-1.5-6.9-4.6c-2.3-3.8-3.4-9.2-3.4-16.1s1.9-7.3,5.7-8c6.9-1.5,12.2-4.6,16.1-9.2,2.3-3.8,4.2-9.9,5.7-18.4,3-29.1,5.7-59.7,8-91.8-3.1.8-6.1,1.9-9.2,3.4-3.1,2.3-6.1,1.9-9.2-1.1Z"/>
  <path class="st0" d="M679.7,83.7c8.4,10,12.6,23.3,12.6,40.2,0,24.5-5.7,44.8-17.2,60.8-12.2,16.8-24.5,25.2-36.7,25.2s-21.4-3.8-29.8-11.5c-10-8.4-14.9-23-14.9-43.6s5.7-39.4,17.2-56.2c12.2-16.8,26.8-25.2,43.6-25.2s18.4,3.4,25.2,10.3ZM629.2,107.8c-9.2,11.5-13.8,26.4-13.8,44.8s6.5,31,19.5,31,18.7-5.7,26.4-17.2c8.4-13,12.6-26,12.6-39s-1.5-13-4.6-18.4c-5.4-9.2-11.9-13.8-19.5-13.8s-13.8,4.2-20.7,12.6Z"/>
  <path class="st0" d="M763.5,17.1l-3.4,25.2c-10,55.1-16.1,98.7-18.4,130.8,0,6.9,1.1,11.5,3.4,13.8,1.5,1.5,3,2.3,4.6,2.3,8.4,0,18.4-11.9,29.8-35.6,2.3,0,2.7,1.1,1.1,3.4-3.8,15.3-8.4,28.7-13.8,40.2-5.4,11.5-13.4,17.2-24.1,17.2s-9.2-1.5-13.8-4.6c-5.4-6.1-8-11.1-8-14.9-.8-3.8-1.1-9.9-1.1-18.4s6.5-56.6,19.5-137.7l-1.1-3.4-8,2.3c-2.3,0-3.8-.4-4.6-1.1,6.1-12.2,12.6-23,19.5-32.1l4.6-3.4c1.5-.8,3.8-.8,6.9,0,4.6,4.6,6.9,10,6.9,16.1Z"/>
  <path class="st0" d="M828.9,181.3c0,3.1,1.1,4.6,3.4,4.6,6.9,0,16.4-6.9,28.7-20.7.8,11.5-3.4,22.6-12.6,33.3-7.7,9.2-14.9,13.8-21.8,13.8s-9.6-1.9-12.6-5.7c-3.8-5.3-5.7-12.2-5.7-20.7s.4-12.2,1.1-18.4c3-26.8,6.1-53.9,9.2-81.5,1.5-6.1,3.8-10.7,6.9-13.8,8.4,7.7,12.2,20.7,11.5,39-2.3,19.9-5,40.2-8,60.8v9.2ZM832.3,5.7c6.9,9.2,10.3,16.5,10.3,21.8,0,10.7-1.9,18.8-5.7,24.1-3.1,2.3-6.1,2.3-9.2,0-1.5-1.5-3.1-3.8-4.6-6.9-3.1-3.8-3.1-8,0-12.6,3-7.6,5.7-16.4,8-26.4h1.1Z"/>
  <path class="st0" d="M968.9,83.7c8.4,10,12.6,23.3,12.6,40.2,0,24.5-5.7,44.8-17.2,60.8-12.2,16.8-24.5,25.2-36.7,25.2s-21.4-3.8-29.8-11.5c-10-8.4-14.9-23-14.9-43.6s5.7-39.4,17.2-56.2c12.2-16.8,26.8-25.2,43.6-25.2s18.4,3.4,25.2,10.3ZM918.4,107.8c-9.2,11.5-13.8,26.4-13.8,44.8s6.5,31,19.5,31,18.7-5.7,26.4-17.2c8.4-13,12.6-26,12.6-39s-1.5-13-4.6-18.4c-5.4-9.2-11.9-13.8-19.5-13.8s-13.8,4.2-20.7,12.6Z"/>
</svg>